<mxfile host="app.diagrams.net" modified="2024-05-30T23:40:23.446Z" agent="Mozilla/5.0 (Macintosh; Intel Mac OS X 10_15_7) AppleWebKit/537.36 (KHTML, like Gecko) Chrome/124.0.0.0 Safari/537.36" etag="oWhk3cePo_yk3Vn_Ihfx" version="24.4.10" type="github">
  <diagram name="Page-1" id="Scgcn452KLhz6SlbhJTH">
    <mxGraphModel dx="878" dy="577" grid="1" gridSize="10" guides="1" tooltips="1" connect="1" arrows="1" fold="1" page="1" pageScale="1" pageWidth="827" pageHeight="1169" math="0" shadow="0">
      <root>
        <mxCell id="0" />
        <mxCell id="1" parent="0" />
        <mxCell id="uAXi2rXqYcfUyif14zVj-1" value="Members" style="swimlane;childLayout=stackLayout;horizontal=1;startSize=50;horizontalStack=0;rounded=1;fontSize=14;fontStyle=0;strokeWidth=2;resizeParent=0;resizeLast=1;shadow=0;dashed=0;align=center;arcSize=4;whiteSpace=wrap;html=1;" vertex="1" parent="1">
          <mxGeometry x="9" y="390" width="160" height="120" as="geometry" />
        </mxCell>
        <mxCell id="uAXi2rXqYcfUyif14zVj-2" value="+Member ID (PK)&lt;br&gt;&lt;div&gt;&lt;span style=&quot;background-color: initial;&quot;&gt;+&lt;/span&gt;Name&lt;/div&gt;&lt;div&gt;&lt;span style=&quot;background-color: initial;&quot;&gt;+&lt;/span&gt;Address&lt;/div&gt;&lt;div&gt;&lt;span style=&quot;background-color: initial;&quot;&gt;+&lt;/span&gt;Phone&lt;/div&gt;" style="align=left;strokeColor=none;fillColor=none;spacingLeft=4;fontSize=12;verticalAlign=top;resizable=0;rotatable=0;part=1;html=1;" vertex="1" parent="uAXi2rXqYcfUyif14zVj-1">
          <mxGeometry y="50" width="160" height="70" as="geometry" />
        </mxCell>
        <mxCell id="uAXi2rXqYcfUyif14zVj-3" value="Librarians" style="swimlane;childLayout=stackLayout;horizontal=1;startSize=50;horizontalStack=0;rounded=1;fontSize=14;fontStyle=0;strokeWidth=2;resizeParent=0;resizeLast=1;shadow=0;dashed=0;align=center;arcSize=4;whiteSpace=wrap;html=1;" vertex="1" parent="1">
          <mxGeometry x="9" y="230" width="160" height="120" as="geometry" />
        </mxCell>
        <mxCell id="uAXi2rXqYcfUyif14zVj-4" value="+Staff ID (PK)&lt;br&gt;&lt;div&gt;&lt;span style=&quot;background-color: initial;&quot;&gt;+&lt;/span&gt;Name&lt;/div&gt;&lt;div&gt;&lt;span style=&quot;background-color: initial;&quot;&gt;+&lt;/span&gt;Address&lt;/div&gt;&lt;div&gt;+Phone&lt;/div&gt;" style="align=left;strokeColor=none;fillColor=none;spacingLeft=4;fontSize=12;verticalAlign=top;resizable=0;rotatable=0;part=1;html=1;" vertex="1" parent="uAXi2rXqYcfUyif14zVj-3">
          <mxGeometry y="50" width="160" height="70" as="geometry" />
        </mxCell>
        <mxCell id="uAXi2rXqYcfUyif14zVj-5" value="Loans" style="swimlane;childLayout=stackLayout;horizontal=1;startSize=50;horizontalStack=0;rounded=1;fontSize=14;fontStyle=0;strokeWidth=2;resizeParent=0;resizeLast=1;shadow=0;dashed=0;align=center;arcSize=4;whiteSpace=wrap;html=1;" vertex="1" parent="1">
          <mxGeometry x="229" y="290" width="160" height="140" as="geometry" />
        </mxCell>
        <mxCell id="uAXi2rXqYcfUyif14zVj-6" value="+Loan Date(PK)&lt;br&gt;&lt;div&gt;&lt;span style=&quot;background-color: initial;&quot;&gt;+&lt;/span&gt;Return Date&lt;/div&gt;&lt;div&gt;&lt;span style=&quot;background-color: initial;&quot;&gt;+&lt;/span&gt;Member ID&amp;nbsp;&lt;span style=&quot;background-color: initial;&quot;&gt;(PK)&lt;/span&gt;&lt;span style=&quot;background-color: initial;&quot;&gt;(FK)&lt;/span&gt;&lt;/div&gt;&lt;div&gt;+Barcode&amp;nbsp;&lt;span style=&quot;background-color: initial;&quot;&gt;(PK)&lt;/span&gt;&lt;span style=&quot;background-color: initial;&quot;&gt;(FK)&lt;/span&gt;&lt;/div&gt;&lt;div&gt;+Staff ID&amp;nbsp;&lt;span style=&quot;background-color: initial;&quot;&gt;(FK)&lt;/span&gt;&lt;/div&gt;" style="align=left;strokeColor=none;fillColor=none;spacingLeft=4;fontSize=12;verticalAlign=top;resizable=0;rotatable=0;part=1;html=1;" vertex="1" parent="uAXi2rXqYcfUyif14zVj-5">
          <mxGeometry y="50" width="160" height="90" as="geometry" />
        </mxCell>
        <mxCell id="uAXi2rXqYcfUyif14zVj-7" value="Books" style="swimlane;childLayout=stackLayout;horizontal=1;startSize=50;horizontalStack=0;rounded=1;fontSize=14;fontStyle=0;strokeWidth=2;resizeParent=0;resizeLast=1;shadow=0;dashed=0;align=center;arcSize=4;whiteSpace=wrap;html=1;" vertex="1" parent="1">
          <mxGeometry x="451" y="300" width="160" height="150" as="geometry" />
        </mxCell>
        <mxCell id="uAXi2rXqYcfUyif14zVj-8" value="&lt;div&gt;&lt;span style=&quot;background-color: initial;&quot;&gt;+&lt;/span&gt;&lt;span style=&quot;background-color: initial;&quot;&gt;Barcode (PK)&lt;/span&gt;&lt;/div&gt;&lt;div&gt;&lt;span style=&quot;background-color: initial;&quot;&gt;+ISBN&lt;/span&gt;&lt;/div&gt;&lt;div&gt;&lt;span style=&quot;background-color: initial;&quot;&gt;+&lt;/span&gt;&lt;span style=&quot;background-color: initial;&quot;&gt;Genre&lt;/span&gt;&lt;/div&gt;&lt;div&gt;&lt;span style=&quot;background-color: initial;&quot;&gt;+&lt;/span&gt;Title&lt;br&gt;+Author&lt;br&gt;&lt;div&gt;&lt;span style=&quot;background-color: initial;&quot;&gt;+&lt;/span&gt;Publication year&lt;/div&gt;&lt;/div&gt;" style="align=left;strokeColor=none;fillColor=none;spacingLeft=4;fontSize=12;verticalAlign=top;resizable=0;rotatable=0;part=1;html=1;" vertex="1" parent="uAXi2rXqYcfUyif14zVj-7">
          <mxGeometry y="50" width="160" height="100" as="geometry" />
        </mxCell>
        <mxCell id="uAXi2rXqYcfUyif14zVj-16" value="" style="edgeStyle=entityRelationEdgeStyle;fontSize=12;html=1;endArrow=ERoneToMany;rounded=0;entryX=1;entryY=0.25;entryDx=0;entryDy=0;exitX=0;exitY=0.75;exitDx=0;exitDy=0;" edge="1" parent="1" source="uAXi2rXqYcfUyif14zVj-6" target="uAXi2rXqYcfUyif14zVj-2">
          <mxGeometry width="100" height="100" relative="1" as="geometry">
            <mxPoint x="359" y="540" as="sourcePoint" />
            <mxPoint x="459" y="440" as="targetPoint" />
          </mxGeometry>
        </mxCell>
        <mxCell id="uAXi2rXqYcfUyif14zVj-24" value="" style="edgeStyle=entityRelationEdgeStyle;fontSize=12;html=1;endArrow=ERoneToMany;rounded=0;entryX=0;entryY=0.5;entryDx=0;entryDy=0;exitX=1.011;exitY=0.368;exitDx=0;exitDy=0;exitPerimeter=0;" edge="1" parent="1" source="uAXi2rXqYcfUyif14zVj-6" target="uAXi2rXqYcfUyif14zVj-8">
          <mxGeometry width="100" height="100" relative="1" as="geometry">
            <mxPoint x="49" y="270" as="sourcePoint" />
            <mxPoint x="149" y="485" as="targetPoint" />
            <Array as="points">
              <mxPoint x="99" y="390" />
              <mxPoint x="69" y="350" />
              <mxPoint x="89" y="380" />
              <mxPoint x="89" y="380" />
            </Array>
          </mxGeometry>
        </mxCell>
        <mxCell id="uAXi2rXqYcfUyif14zVj-28" value="" style="edgeStyle=entityRelationEdgeStyle;fontSize=12;html=1;endArrow=ERoneToMany;rounded=0;entryX=1;entryY=0.5;entryDx=0;entryDy=0;exitX=0;exitY=0.25;exitDx=0;exitDy=0;" edge="1" parent="1" source="uAXi2rXqYcfUyif14zVj-6" target="uAXi2rXqYcfUyif14zVj-4">
          <mxGeometry width="100" height="100" relative="1" as="geometry">
            <mxPoint x="269" y="205" as="sourcePoint" />
            <mxPoint x="209" y="300" as="targetPoint" />
          </mxGeometry>
        </mxCell>
        <mxCell id="uAXi2rXqYcfUyif14zVj-30" value="Book" style="swimlane;fontStyle=1;align=center;verticalAlign=top;childLayout=stackLayout;horizontal=1;startSize=26;horizontalStack=0;resizeParent=1;resizeParentMax=0;resizeLast=0;collapsible=1;marginBottom=0;whiteSpace=wrap;html=1;" vertex="1" parent="1">
          <mxGeometry x="9" y="820" width="160" height="154" as="geometry" />
        </mxCell>
        <mxCell id="uAXi2rXqYcfUyif14zVj-31" value="- barcode: String(PK)&lt;div&gt;- book_title: String&lt;/div&gt;&lt;div&gt;- isbn: Integer&lt;/div&gt;&lt;div&gt;- genre: String&lt;/div&gt;&lt;div&gt;- publication_year: Integer&lt;/div&gt;&lt;div&gt;- author: String&lt;/div&gt;" style="text;strokeColor=none;fillColor=none;align=left;verticalAlign=top;spacingLeft=4;spacingRight=4;overflow=hidden;rotatable=0;points=[[0,0.5],[1,0.5]];portConstraint=eastwest;whiteSpace=wrap;html=1;" vertex="1" parent="uAXi2rXqYcfUyif14zVj-30">
          <mxGeometry y="26" width="160" height="94" as="geometry" />
        </mxCell>
        <mxCell id="uAXi2rXqYcfUyif14zVj-32" value="" style="line;strokeWidth=1;fillColor=none;align=left;verticalAlign=middle;spacingTop=-1;spacingLeft=3;spacingRight=3;rotatable=0;labelPosition=right;points=[];portConstraint=eastwest;strokeColor=inherit;" vertex="1" parent="uAXi2rXqYcfUyif14zVj-30">
          <mxGeometry y="120" width="160" height="8" as="geometry" />
        </mxCell>
        <mxCell id="uAXi2rXqYcfUyif14zVj-33" value="+ method(type): type" style="text;strokeColor=none;fillColor=none;align=left;verticalAlign=top;spacingLeft=4;spacingRight=4;overflow=hidden;rotatable=0;points=[[0,0.5],[1,0.5]];portConstraint=eastwest;whiteSpace=wrap;html=1;" vertex="1" parent="uAXi2rXqYcfUyif14zVj-30">
          <mxGeometry y="128" width="160" height="26" as="geometry" />
        </mxCell>
        <mxCell id="uAXi2rXqYcfUyif14zVj-34" value="Librarian" style="swimlane;fontStyle=1;align=center;verticalAlign=top;childLayout=stackLayout;horizontal=1;startSize=26;horizontalStack=0;resizeParent=1;resizeParentMax=0;resizeLast=0;collapsible=1;marginBottom=0;whiteSpace=wrap;html=1;" vertex="1" parent="1">
          <mxGeometry x="659" y="560" width="160" height="134" as="geometry" />
        </mxCell>
        <mxCell id="uAXi2rXqYcfUyif14zVj-35" value="- staff_id: String(PK)&lt;div&gt;- staff_name: String&lt;/div&gt;&lt;div&gt;- staff_address: String&lt;/div&gt;&lt;div&gt;&lt;span style=&quot;background-color: initial;&quot;&gt;- staff_phone: String&lt;/span&gt;&lt;/div&gt;" style="text;strokeColor=none;fillColor=none;align=left;verticalAlign=top;spacingLeft=4;spacingRight=4;overflow=hidden;rotatable=0;points=[[0,0.5],[1,0.5]];portConstraint=eastwest;whiteSpace=wrap;html=1;" vertex="1" parent="uAXi2rXqYcfUyif14zVj-34">
          <mxGeometry y="26" width="160" height="74" as="geometry" />
        </mxCell>
        <mxCell id="uAXi2rXqYcfUyif14zVj-36" value="" style="line;strokeWidth=1;fillColor=none;align=left;verticalAlign=middle;spacingTop=-1;spacingLeft=3;spacingRight=3;rotatable=0;labelPosition=right;points=[];portConstraint=eastwest;strokeColor=inherit;" vertex="1" parent="uAXi2rXqYcfUyif14zVj-34">
          <mxGeometry y="100" width="160" height="8" as="geometry" />
        </mxCell>
        <mxCell id="uAXi2rXqYcfUyif14zVj-37" value="+ method(type): type" style="text;strokeColor=none;fillColor=none;align=left;verticalAlign=top;spacingLeft=4;spacingRight=4;overflow=hidden;rotatable=0;points=[[0,0.5],[1,0.5]];portConstraint=eastwest;whiteSpace=wrap;html=1;" vertex="1" parent="uAXi2rXqYcfUyif14zVj-34">
          <mxGeometry y="108" width="160" height="26" as="geometry" />
        </mxCell>
        <mxCell id="uAXi2rXqYcfUyif14zVj-38" value="Loan" style="swimlane;fontStyle=1;align=center;verticalAlign=top;childLayout=stackLayout;horizontal=1;startSize=26;horizontalStack=0;resizeParent=1;resizeParentMax=0;resizeLast=0;collapsible=1;marginBottom=0;whiteSpace=wrap;html=1;" vertex="1" parent="1">
          <mxGeometry x="419" y="730" width="180" height="154" as="geometry" />
        </mxCell>
        <mxCell id="uAXi2rXqYcfUyif14zVj-39" value="- loan_date: Date/Time(PK)&lt;div&gt;- return_date: Date/Time&lt;/div&gt;&lt;div&gt;- member: Member(FK)&lt;/div&gt;&lt;div&gt;- book: Book(FK)&lt;/div&gt;&lt;div&gt;- librarian: Librarian(FK)&lt;/div&gt;" style="text;strokeColor=none;fillColor=none;align=left;verticalAlign=top;spacingLeft=4;spacingRight=4;overflow=hidden;rotatable=0;points=[[0,0.5],[1,0.5]];portConstraint=eastwest;whiteSpace=wrap;html=1;" vertex="1" parent="uAXi2rXqYcfUyif14zVj-38">
          <mxGeometry y="26" width="180" height="94" as="geometry" />
        </mxCell>
        <mxCell id="uAXi2rXqYcfUyif14zVj-40" value="" style="line;strokeWidth=1;fillColor=none;align=left;verticalAlign=middle;spacingTop=-1;spacingLeft=3;spacingRight=3;rotatable=0;labelPosition=right;points=[];portConstraint=eastwest;strokeColor=inherit;" vertex="1" parent="uAXi2rXqYcfUyif14zVj-38">
          <mxGeometry y="120" width="180" height="8" as="geometry" />
        </mxCell>
        <mxCell id="uAXi2rXqYcfUyif14zVj-41" value="+ method(type): type" style="text;strokeColor=none;fillColor=none;align=left;verticalAlign=top;spacingLeft=4;spacingRight=4;overflow=hidden;rotatable=0;points=[[0,0.5],[1,0.5]];portConstraint=eastwest;whiteSpace=wrap;html=1;" vertex="1" parent="uAXi2rXqYcfUyif14zVj-38">
          <mxGeometry y="128" width="180" height="26" as="geometry" />
        </mxCell>
        <mxCell id="uAXi2rXqYcfUyif14zVj-42" value="Member" style="swimlane;fontStyle=1;align=center;verticalAlign=top;childLayout=stackLayout;horizontal=1;startSize=26;horizontalStack=0;resizeParent=1;resizeParentMax=0;resizeLast=0;collapsible=1;marginBottom=0;whiteSpace=wrap;html=1;" vertex="1" parent="1">
          <mxGeometry x="9" y="620" width="160" height="134" as="geometry" />
        </mxCell>
        <mxCell id="uAXi2rXqYcfUyif14zVj-43" value="- member_id: String(PK)&lt;div&gt;- member_name: String&lt;/div&gt;&lt;div&gt;- member_address: String&lt;/div&gt;&lt;div&gt;- member_mobile:String&lt;/div&gt;" style="text;strokeColor=none;fillColor=none;align=left;verticalAlign=top;spacingLeft=4;spacingRight=4;overflow=hidden;rotatable=0;points=[[0,0.5],[1,0.5]];portConstraint=eastwest;whiteSpace=wrap;html=1;" vertex="1" parent="uAXi2rXqYcfUyif14zVj-42">
          <mxGeometry y="26" width="160" height="74" as="geometry" />
        </mxCell>
        <mxCell id="uAXi2rXqYcfUyif14zVj-44" value="" style="line;strokeWidth=1;fillColor=none;align=left;verticalAlign=middle;spacingTop=-1;spacingLeft=3;spacingRight=3;rotatable=0;labelPosition=right;points=[];portConstraint=eastwest;strokeColor=inherit;" vertex="1" parent="uAXi2rXqYcfUyif14zVj-42">
          <mxGeometry y="100" width="160" height="8" as="geometry" />
        </mxCell>
        <mxCell id="uAXi2rXqYcfUyif14zVj-45" value="+ method(type): type" style="text;strokeColor=none;fillColor=none;align=left;verticalAlign=top;spacingLeft=4;spacingRight=4;overflow=hidden;rotatable=0;points=[[0,0.5],[1,0.5]];portConstraint=eastwest;whiteSpace=wrap;html=1;" vertex="1" parent="uAXi2rXqYcfUyif14zVj-42">
          <mxGeometry y="108" width="160" height="26" as="geometry" />
        </mxCell>
        <mxCell id="uAXi2rXqYcfUyif14zVj-48" value="" style="endArrow=open;endFill=1;endSize=12;html=1;rounded=0;entryX=1.005;entryY=0.857;entryDx=0;entryDy=0;entryPerimeter=0;exitX=-0.001;exitY=0.187;exitDx=0;exitDy=0;exitPerimeter=0;edgeStyle=orthogonalEdgeStyle;startArrow=ERmany;startFill=0;" edge="1" parent="1" source="uAXi2rXqYcfUyif14zVj-39" target="uAXi2rXqYcfUyif14zVj-43">
          <mxGeometry width="160" relative="1" as="geometry">
            <mxPoint x="419" y="810" as="sourcePoint" />
            <mxPoint x="579" y="810" as="targetPoint" />
          </mxGeometry>
        </mxCell>
        <mxCell id="uAXi2rXqYcfUyif14zVj-49" value="Borrows Books" style="edgeLabel;html=1;align=center;verticalAlign=middle;resizable=0;points=[];fontSize=15;" vertex="1" connectable="0" parent="uAXi2rXqYcfUyif14zVj-48">
          <mxGeometry x="0.45" y="5" relative="1" as="geometry">
            <mxPoint x="50" y="27" as="offset" />
          </mxGeometry>
        </mxCell>
        <mxCell id="uAXi2rXqYcfUyif14zVj-50" value="" style="endArrow=open;endFill=1;endSize=12;html=1;rounded=0;entryX=1;entryY=0.5;entryDx=0;entryDy=0;exitX=0.004;exitY=0.786;exitDx=0;exitDy=0;exitPerimeter=0;edgeStyle=orthogonalEdgeStyle;startArrow=ERmany;startFill=0;" edge="1" parent="1" source="uAXi2rXqYcfUyif14zVj-39" target="uAXi2rXqYcfUyif14zVj-31">
          <mxGeometry width="160" relative="1" as="geometry">
            <mxPoint x="419" y="813" as="sourcePoint" />
            <mxPoint x="169" y="690" as="targetPoint" />
          </mxGeometry>
        </mxCell>
        <mxCell id="uAXi2rXqYcfUyif14zVj-51" value="Is Borrowed" style="edgeLabel;html=1;align=center;verticalAlign=middle;resizable=0;points=[];fontSize=15;" vertex="1" connectable="0" parent="uAXi2rXqYcfUyif14zVj-50">
          <mxGeometry x="0.45" y="5" relative="1" as="geometry">
            <mxPoint x="50" y="-38" as="offset" />
          </mxGeometry>
        </mxCell>
        <mxCell id="uAXi2rXqYcfUyif14zVj-57" value="" style="endArrow=open;endFill=1;endSize=12;html=1;rounded=0;entryX=0;entryY=0.5;entryDx=0;entryDy=0;edgeStyle=orthogonalEdgeStyle;startArrow=ERmany;startFill=0;" edge="1" parent="1" target="uAXi2rXqYcfUyif14zVj-35">
          <mxGeometry width="160" relative="1" as="geometry">
            <mxPoint x="599" y="790" as="sourcePoint" />
            <mxPoint x="759" y="790" as="targetPoint" />
            <Array as="points">
              <mxPoint x="629" y="790" />
              <mxPoint x="629" y="623" />
            </Array>
          </mxGeometry>
        </mxCell>
        <mxCell id="uAXi2rXqYcfUyif14zVj-58" value="Process Loans" style="edgeLabel;html=1;align=center;verticalAlign=middle;resizable=0;points=[];fontSize=15;" vertex="1" connectable="0" parent="uAXi2rXqYcfUyif14zVj-57">
          <mxGeometry x="-0.3184" y="4" relative="1" as="geometry">
            <mxPoint y="-33" as="offset" />
          </mxGeometry>
        </mxCell>
        <mxCell id="uAXi2rXqYcfUyif14zVj-59" value="Player" style="swimlane;fontStyle=1;align=center;verticalAlign=top;childLayout=stackLayout;horizontal=1;startSize=26;horizontalStack=0;resizeParent=1;resizeParentMax=0;resizeLast=0;collapsible=1;marginBottom=0;whiteSpace=wrap;html=1;" vertex="1" parent="1">
          <mxGeometry x="530" y="940" width="210" height="90" as="geometry" />
        </mxCell>
        <mxCell id="uAXi2rXqYcfUyif14zVj-60" value="- player_name: String" style="text;strokeColor=none;fillColor=none;align=left;verticalAlign=top;spacingLeft=4;spacingRight=4;overflow=hidden;rotatable=0;points=[[0,0.5],[1,0.5]];portConstraint=eastwest;whiteSpace=wrap;html=1;" vertex="1" parent="uAXi2rXqYcfUyif14zVj-59">
          <mxGeometry y="26" width="210" height="24" as="geometry" />
        </mxCell>
        <mxCell id="uAXi2rXqYcfUyif14zVj-61" value="" style="line;strokeWidth=1;fillColor=none;align=left;verticalAlign=middle;spacingTop=-1;spacingLeft=3;spacingRight=3;rotatable=0;labelPosition=right;points=[];portConstraint=eastwest;strokeColor=inherit;" vertex="1" parent="uAXi2rXqYcfUyif14zVj-59">
          <mxGeometry y="50" width="210" height="8" as="geometry" />
        </mxCell>
        <mxCell id="uAXi2rXqYcfUyif14zVj-62" value="- __init__(player_name: String): void" style="text;strokeColor=none;fillColor=none;align=left;verticalAlign=top;spacingLeft=4;spacingRight=4;overflow=hidden;rotatable=0;points=[[0,0.5],[1,0.5]];portConstraint=eastwest;whiteSpace=wrap;html=1;" vertex="1" parent="uAXi2rXqYcfUyif14zVj-59">
          <mxGeometry y="58" width="210" height="32" as="geometry" />
        </mxCell>
        <mxCell id="uAXi2rXqYcfUyif14zVj-63" value="Team" style="swimlane;fontStyle=1;align=center;verticalAlign=top;childLayout=stackLayout;horizontal=1;startSize=26;horizontalStack=0;resizeParent=1;resizeParentMax=0;resizeLast=0;collapsible=1;marginBottom=0;whiteSpace=wrap;html=1;" vertex="1" parent="1">
          <mxGeometry x="190" y="940" width="210" height="130" as="geometry" />
        </mxCell>
        <mxCell id="uAXi2rXqYcfUyif14zVj-64" value="- team_name: String&lt;div&gt;- players: List&amp;lt;Player&amp;gt;&lt;/div&gt;" style="text;strokeColor=none;fillColor=none;align=left;verticalAlign=top;spacingLeft=4;spacingRight=4;overflow=hidden;rotatable=0;points=[[0,0.5],[1,0.5]];portConstraint=eastwest;whiteSpace=wrap;html=1;" vertex="1" parent="uAXi2rXqYcfUyif14zVj-63">
          <mxGeometry y="26" width="210" height="44" as="geometry" />
        </mxCell>
        <mxCell id="uAXi2rXqYcfUyif14zVj-65" value="" style="line;strokeWidth=1;fillColor=none;align=left;verticalAlign=middle;spacingTop=-1;spacingLeft=3;spacingRight=3;rotatable=0;labelPosition=right;points=[];portConstraint=eastwest;strokeColor=inherit;" vertex="1" parent="uAXi2rXqYcfUyif14zVj-63">
          <mxGeometry y="70" width="210" height="8" as="geometry" />
        </mxCell>
        <mxCell id="uAXi2rXqYcfUyif14zVj-66" value="- __init__(team_name: String): void&lt;div&gt;+ add_player(player: Player): void&lt;/div&gt;" style="text;strokeColor=none;fillColor=none;align=left;verticalAlign=top;spacingLeft=4;spacingRight=4;overflow=hidden;rotatable=0;points=[[0,0.5],[1,0.5]];portConstraint=eastwest;whiteSpace=wrap;html=1;" vertex="1" parent="uAXi2rXqYcfUyif14zVj-63">
          <mxGeometry y="78" width="210" height="52" as="geometry" />
        </mxCell>
        <mxCell id="uAXi2rXqYcfUyif14zVj-67" value="0" style="endArrow=none;html=1;endSize=12;startArrow=diamondThin;startSize=14;startFill=0;edgeStyle=orthogonalEdgeStyle;align=left;verticalAlign=bottom;rounded=0;endFill=0;" edge="1" parent="1">
          <mxGeometry x="-1" y="3" relative="1" as="geometry">
            <mxPoint x="400" y="980" as="sourcePoint" />
            <mxPoint x="530" y="980" as="targetPoint" />
          </mxGeometry>
        </mxCell>
        <mxCell id="uAXi2rXqYcfUyif14zVj-68" value="Plays for" style="edgeLabel;html=1;align=center;verticalAlign=middle;resizable=0;points=[];fontSize=15;" vertex="1" connectable="0" parent="uAXi2rXqYcfUyif14zVj-67">
          <mxGeometry x="0.1639" relative="1" as="geometry">
            <mxPoint x="-6" as="offset" />
          </mxGeometry>
        </mxCell>
        <mxCell id="uAXi2rXqYcfUyif14zVj-70" value="Room" style="swimlane;fontStyle=1;align=center;verticalAlign=top;childLayout=stackLayout;horizontal=1;startSize=26;horizontalStack=0;resizeParent=1;resizeParentMax=0;resizeLast=0;collapsible=1;marginBottom=0;whiteSpace=wrap;html=1;" vertex="1" parent="1">
          <mxGeometry x="440" y="1095" width="210" height="90" as="geometry" />
        </mxCell>
        <mxCell id="uAXi2rXqYcfUyif14zVj-71" value="- room_name: String" style="text;strokeColor=none;fillColor=none;align=left;verticalAlign=top;spacingLeft=4;spacingRight=4;overflow=hidden;rotatable=0;points=[[0,0.5],[1,0.5]];portConstraint=eastwest;whiteSpace=wrap;html=1;" vertex="1" parent="uAXi2rXqYcfUyif14zVj-70">
          <mxGeometry y="26" width="210" height="24" as="geometry" />
        </mxCell>
        <mxCell id="uAXi2rXqYcfUyif14zVj-72" value="" style="line;strokeWidth=1;fillColor=none;align=left;verticalAlign=middle;spacingTop=-1;spacingLeft=3;spacingRight=3;rotatable=0;labelPosition=right;points=[];portConstraint=eastwest;strokeColor=inherit;" vertex="1" parent="uAXi2rXqYcfUyif14zVj-70">
          <mxGeometry y="50" width="210" height="8" as="geometry" />
        </mxCell>
        <mxCell id="uAXi2rXqYcfUyif14zVj-73" value="- __init__(room_name: String): void" style="text;strokeColor=none;fillColor=none;align=left;verticalAlign=top;spacingLeft=4;spacingRight=4;overflow=hidden;rotatable=0;points=[[0,0.5],[1,0.5]];portConstraint=eastwest;whiteSpace=wrap;html=1;" vertex="1" parent="uAXi2rXqYcfUyif14zVj-70">
          <mxGeometry y="58" width="210" height="32" as="geometry" />
        </mxCell>
        <mxCell id="uAXi2rXqYcfUyif14zVj-74" value="House" style="swimlane;fontStyle=1;align=center;verticalAlign=top;childLayout=stackLayout;horizontal=1;startSize=26;horizontalStack=0;resizeParent=1;resizeParentMax=0;resizeLast=0;collapsible=1;marginBottom=0;whiteSpace=wrap;html=1;" vertex="1" parent="1">
          <mxGeometry x="100" y="1095" width="210" height="130" as="geometry" />
        </mxCell>
        <mxCell id="uAXi2rXqYcfUyif14zVj-75" value="&lt;div&gt;- address: String&lt;/div&gt;&lt;div&gt;- players: List&amp;lt;Room&amp;gt;&lt;/div&gt;" style="text;strokeColor=none;fillColor=none;align=left;verticalAlign=top;spacingLeft=4;spacingRight=4;overflow=hidden;rotatable=0;points=[[0,0.5],[1,0.5]];portConstraint=eastwest;whiteSpace=wrap;html=1;" vertex="1" parent="uAXi2rXqYcfUyif14zVj-74">
          <mxGeometry y="26" width="210" height="44" as="geometry" />
        </mxCell>
        <mxCell id="uAXi2rXqYcfUyif14zVj-76" value="" style="line;strokeWidth=1;fillColor=none;align=left;verticalAlign=middle;spacingTop=-1;spacingLeft=3;spacingRight=3;rotatable=0;labelPosition=right;points=[];portConstraint=eastwest;strokeColor=inherit;" vertex="1" parent="uAXi2rXqYcfUyif14zVj-74">
          <mxGeometry y="70" width="210" height="8" as="geometry" />
        </mxCell>
        <mxCell id="uAXi2rXqYcfUyif14zVj-77" value="- __init__(address: String): void&lt;div&gt;+ add_room(room_name: Room): void&lt;/div&gt;" style="text;strokeColor=none;fillColor=none;align=left;verticalAlign=top;spacingLeft=4;spacingRight=4;overflow=hidden;rotatable=0;points=[[0,0.5],[1,0.5]];portConstraint=eastwest;whiteSpace=wrap;html=1;" vertex="1" parent="uAXi2rXqYcfUyif14zVj-74">
          <mxGeometry y="78" width="210" height="52" as="geometry" />
        </mxCell>
        <mxCell id="uAXi2rXqYcfUyif14zVj-78" value="0" style="endArrow=none;html=1;endSize=12;startArrow=diamondThin;startSize=14;startFill=1;edgeStyle=orthogonalEdgeStyle;align=left;verticalAlign=bottom;rounded=0;endFill=0;strokeColor=default;" edge="1" parent="1">
          <mxGeometry x="-1" y="3" relative="1" as="geometry">
            <mxPoint x="310" y="1135" as="sourcePoint" />
            <mxPoint x="440" y="1135" as="targetPoint" />
          </mxGeometry>
        </mxCell>
        <mxCell id="uAXi2rXqYcfUyif14zVj-79" value="Exists in" style="edgeLabel;html=1;align=center;verticalAlign=middle;resizable=0;points=[];fontSize=15;" vertex="1" connectable="0" parent="uAXi2rXqYcfUyif14zVj-78">
          <mxGeometry x="0.1639" relative="1" as="geometry">
            <mxPoint x="-6" as="offset" />
          </mxGeometry>
        </mxCell>
        <mxCell id="uAXi2rXqYcfUyif14zVj-81" value="Cat" style="swimlane;fontStyle=1;align=center;verticalAlign=top;childLayout=stackLayout;horizontal=1;startSize=26;horizontalStack=0;resizeParent=1;resizeParentMax=0;resizeLast=0;collapsible=1;marginBottom=0;whiteSpace=wrap;html=1;" vertex="1" parent="1">
          <mxGeometry x="440" y="1560" width="160" height="86" as="geometry" />
        </mxCell>
        <mxCell id="uAXi2rXqYcfUyif14zVj-82" value="- breed: String&amp;nbsp;" style="text;strokeColor=none;fillColor=none;align=left;verticalAlign=top;spacingLeft=4;spacingRight=4;overflow=hidden;rotatable=0;points=[[0,0.5],[1,0.5]];portConstraint=eastwest;whiteSpace=wrap;html=1;" vertex="1" parent="uAXi2rXqYcfUyif14zVj-81">
          <mxGeometry y="26" width="160" height="26" as="geometry" />
        </mxCell>
        <mxCell id="uAXi2rXqYcfUyif14zVj-83" value="" style="line;strokeWidth=1;fillColor=none;align=left;verticalAlign=middle;spacingTop=-1;spacingLeft=3;spacingRight=3;rotatable=0;labelPosition=right;points=[];portConstraint=eastwest;strokeColor=inherit;" vertex="1" parent="uAXi2rXqYcfUyif14zVj-81">
          <mxGeometry y="52" width="160" height="8" as="geometry" />
        </mxCell>
        <mxCell id="uAXi2rXqYcfUyif14zVj-84" value="+ make_sound(): String" style="text;strokeColor=none;fillColor=none;align=left;verticalAlign=top;spacingLeft=4;spacingRight=4;overflow=hidden;rotatable=0;points=[[0,0.5],[1,0.5]];portConstraint=eastwest;whiteSpace=wrap;html=1;" vertex="1" parent="uAXi2rXqYcfUyif14zVj-81">
          <mxGeometry y="60" width="160" height="26" as="geometry" />
        </mxCell>
        <mxCell id="uAXi2rXqYcfUyif14zVj-85" value="Dog" style="swimlane;fontStyle=1;align=center;verticalAlign=top;childLayout=stackLayout;horizontal=1;startSize=26;horizontalStack=0;resizeParent=1;resizeParentMax=0;resizeLast=0;collapsible=1;marginBottom=0;whiteSpace=wrap;html=1;" vertex="1" parent="1">
          <mxGeometry x="440" y="1430" width="160" height="86" as="geometry" />
        </mxCell>
        <mxCell id="uAXi2rXqYcfUyif14zVj-86" value="- breed: String" style="text;strokeColor=none;fillColor=none;align=left;verticalAlign=top;spacingLeft=4;spacingRight=4;overflow=hidden;rotatable=0;points=[[0,0.5],[1,0.5]];portConstraint=eastwest;whiteSpace=wrap;html=1;" vertex="1" parent="uAXi2rXqYcfUyif14zVj-85">
          <mxGeometry y="26" width="160" height="26" as="geometry" />
        </mxCell>
        <mxCell id="uAXi2rXqYcfUyif14zVj-87" value="" style="line;strokeWidth=1;fillColor=none;align=left;verticalAlign=middle;spacingTop=-1;spacingLeft=3;spacingRight=3;rotatable=0;labelPosition=right;points=[];portConstraint=eastwest;strokeColor=inherit;" vertex="1" parent="uAXi2rXqYcfUyif14zVj-85">
          <mxGeometry y="52" width="160" height="8" as="geometry" />
        </mxCell>
        <mxCell id="uAXi2rXqYcfUyif14zVj-88" value="+ make_sound(): String" style="text;strokeColor=none;fillColor=none;align=left;verticalAlign=top;spacingLeft=4;spacingRight=4;overflow=hidden;rotatable=0;points=[[0,0.5],[1,0.5]];portConstraint=eastwest;whiteSpace=wrap;html=1;" vertex="1" parent="uAXi2rXqYcfUyif14zVj-85">
          <mxGeometry y="60" width="160" height="26" as="geometry" />
        </mxCell>
        <mxCell id="uAXi2rXqYcfUyif14zVj-89" value="Animal" style="swimlane;fontStyle=1;align=center;verticalAlign=top;childLayout=stackLayout;horizontal=1;startSize=26;horizontalStack=0;resizeParent=1;resizeParentMax=0;resizeLast=0;collapsible=1;marginBottom=0;whiteSpace=wrap;html=1;" vertex="1" parent="1">
          <mxGeometry x="70" y="1500" width="210" height="100" as="geometry" />
        </mxCell>
        <mxCell id="uAXi2rXqYcfUyif14zVj-90" value="- name: String" style="text;strokeColor=none;fillColor=none;align=left;verticalAlign=top;spacingLeft=4;spacingRight=4;overflow=hidden;rotatable=0;points=[[0,0.5],[1,0.5]];portConstraint=eastwest;whiteSpace=wrap;html=1;" vertex="1" parent="uAXi2rXqYcfUyif14zVj-89">
          <mxGeometry y="26" width="210" height="24" as="geometry" />
        </mxCell>
        <mxCell id="uAXi2rXqYcfUyif14zVj-91" value="" style="line;strokeWidth=1;fillColor=none;align=left;verticalAlign=middle;spacingTop=-1;spacingLeft=3;spacingRight=3;rotatable=0;labelPosition=right;points=[];portConstraint=eastwest;strokeColor=inherit;" vertex="1" parent="uAXi2rXqYcfUyif14zVj-89">
          <mxGeometry y="50" width="210" height="8" as="geometry" />
        </mxCell>
        <mxCell id="uAXi2rXqYcfUyif14zVj-92" value="+ __init__(name: String): void (abstract)&amp;nbsp;&lt;span style=&quot;background-color: initial;&quot;&gt;+ make_sound(): String&lt;/span&gt;" style="text;strokeColor=none;fillColor=none;align=left;verticalAlign=top;spacingLeft=4;spacingRight=4;overflow=hidden;rotatable=0;points=[[0,0.5],[1,0.5]];portConstraint=eastwest;whiteSpace=wrap;html=1;" vertex="1" parent="uAXi2rXqYcfUyif14zVj-89">
          <mxGeometry y="58" width="210" height="42" as="geometry" />
        </mxCell>
        <mxCell id="uAXi2rXqYcfUyif14zVj-93" value="Extends" style="endArrow=block;endSize=16;endFill=0;html=1;rounded=0;exitX=0;exitY=0.5;exitDx=0;exitDy=0;entryX=1;entryY=0.5;entryDx=0;entryDy=0;" edge="1" parent="1" source="uAXi2rXqYcfUyif14zVj-82" target="uAXi2rXqYcfUyif14zVj-90">
          <mxGeometry x="-0.0033" width="160" relative="1" as="geometry">
            <mxPoint x="200" y="1550" as="sourcePoint" />
            <mxPoint x="360" y="1550" as="targetPoint" />
            <mxPoint as="offset" />
          </mxGeometry>
        </mxCell>
        <mxCell id="uAXi2rXqYcfUyif14zVj-95" value="Extends" style="endArrow=block;endSize=16;endFill=0;html=1;rounded=0;exitX=0;exitY=0.5;exitDx=0;exitDy=0;entryX=1;entryY=0.5;entryDx=0;entryDy=0;" edge="1" parent="1" source="uAXi2rXqYcfUyif14zVj-86" target="uAXi2rXqYcfUyif14zVj-90">
          <mxGeometry width="160" relative="1" as="geometry">
            <mxPoint x="399" y="1609" as="sourcePoint" />
            <mxPoint x="240" y="1573" as="targetPoint" />
          </mxGeometry>
        </mxCell>
        <mxCell id="uAXi2rXqYcfUyif14zVj-96" value="DataFetcher" style="swimlane;fontStyle=1;align=center;verticalAlign=top;childLayout=stackLayout;horizontal=1;startSize=26;horizontalStack=0;resizeParent=1;resizeParentMax=0;resizeLast=0;collapsible=1;marginBottom=0;whiteSpace=wrap;html=1;" vertex="1" parent="1">
          <mxGeometry x="429" y="1293" width="160" height="60" as="geometry" />
        </mxCell>
        <mxCell id="uAXi2rXqYcfUyif14zVj-98" value="" style="line;strokeWidth=1;fillColor=none;align=left;verticalAlign=middle;spacingTop=-1;spacingLeft=3;spacingRight=3;rotatable=0;labelPosition=right;points=[];portConstraint=eastwest;strokeColor=inherit;" vertex="1" parent="uAXi2rXqYcfUyif14zVj-96">
          <mxGeometry y="26" width="160" height="8" as="geometry" />
        </mxCell>
        <mxCell id="uAXi2rXqYcfUyif14zVj-99" value="+ fetch_data(): String" style="text;strokeColor=none;fillColor=none;align=left;verticalAlign=top;spacingLeft=4;spacingRight=4;overflow=hidden;rotatable=0;points=[[0,0.5],[1,0.5]];portConstraint=eastwest;whiteSpace=wrap;html=1;" vertex="1" parent="uAXi2rXqYcfUyif14zVj-96">
          <mxGeometry y="34" width="160" height="26" as="geometry" />
        </mxCell>
        <mxCell id="uAXi2rXqYcfUyif14zVj-100" value="Report" style="swimlane;fontStyle=1;align=center;verticalAlign=top;childLayout=stackLayout;horizontal=1;startSize=26;horizontalStack=0;resizeParent=1;resizeParentMax=0;resizeLast=0;collapsible=1;marginBottom=0;whiteSpace=wrap;html=1;" vertex="1" parent="1">
          <mxGeometry x="60" y="1280" width="220" height="110" as="geometry" />
        </mxCell>
        <mxCell id="uAXi2rXqYcfUyif14zVj-101" value="- fetcher: DataFetcher" style="text;strokeColor=none;fillColor=none;align=left;verticalAlign=top;spacingLeft=4;spacingRight=4;overflow=hidden;rotatable=0;points=[[0,0.5],[1,0.5]];portConstraint=eastwest;whiteSpace=wrap;html=1;" vertex="1" parent="uAXi2rXqYcfUyif14zVj-100">
          <mxGeometry y="26" width="220" height="26" as="geometry" />
        </mxCell>
        <mxCell id="uAXi2rXqYcfUyif14zVj-102" value="" style="line;strokeWidth=1;fillColor=none;align=left;verticalAlign=middle;spacingTop=-1;spacingLeft=3;spacingRight=3;rotatable=0;labelPosition=right;points=[];portConstraint=eastwest;strokeColor=inherit;" vertex="1" parent="uAXi2rXqYcfUyif14zVj-100">
          <mxGeometry y="52" width="220" height="8" as="geometry" />
        </mxCell>
        <mxCell id="uAXi2rXqYcfUyif14zVj-103" value="+ __init__(fetcher: DataFetcher): void&lt;div&gt;+ generate(): String&lt;/div&gt;" style="text;strokeColor=none;fillColor=none;align=left;verticalAlign=top;spacingLeft=4;spacingRight=4;overflow=hidden;rotatable=0;points=[[0,0.5],[1,0.5]];portConstraint=eastwest;whiteSpace=wrap;html=1;" vertex="1" parent="uAXi2rXqYcfUyif14zVj-100">
          <mxGeometry y="60" width="220" height="50" as="geometry" />
        </mxCell>
        <mxCell id="uAXi2rXqYcfUyif14zVj-104" value="Uses" style="endArrow=open;endSize=12;dashed=1;html=1;rounded=0;exitX=1;exitY=0.5;exitDx=0;exitDy=0;entryX=0;entryY=0.5;entryDx=0;entryDy=0;" edge="1" parent="1" source="uAXi2rXqYcfUyif14zVj-101" target="uAXi2rXqYcfUyif14zVj-99">
          <mxGeometry width="160" relative="1" as="geometry">
            <mxPoint x="280" y="1360" as="sourcePoint" />
            <mxPoint x="440" y="1360" as="targetPoint" />
          </mxGeometry>
        </mxCell>
        <mxCell id="uAXi2rXqYcfUyif14zVj-119" value="Cat" style="swimlane;fontStyle=1;align=center;verticalAlign=top;childLayout=stackLayout;horizontal=1;startSize=26;horizontalStack=0;resizeParent=1;resizeParentMax=0;resizeLast=0;collapsible=1;marginBottom=0;whiteSpace=wrap;html=1;" vertex="1" parent="1">
          <mxGeometry x="430" y="1810" width="160" height="86" as="geometry" />
        </mxCell>
        <mxCell id="uAXi2rXqYcfUyif14zVj-120" value="- breed: String&amp;nbsp;" style="text;strokeColor=none;fillColor=none;align=left;verticalAlign=top;spacingLeft=4;spacingRight=4;overflow=hidden;rotatable=0;points=[[0,0.5],[1,0.5]];portConstraint=eastwest;whiteSpace=wrap;html=1;" vertex="1" parent="uAXi2rXqYcfUyif14zVj-119">
          <mxGeometry y="26" width="160" height="26" as="geometry" />
        </mxCell>
        <mxCell id="uAXi2rXqYcfUyif14zVj-121" value="" style="line;strokeWidth=1;fillColor=none;align=left;verticalAlign=middle;spacingTop=-1;spacingLeft=3;spacingRight=3;rotatable=0;labelPosition=right;points=[];portConstraint=eastwest;strokeColor=inherit;" vertex="1" parent="uAXi2rXqYcfUyif14zVj-119">
          <mxGeometry y="52" width="160" height="8" as="geometry" />
        </mxCell>
        <mxCell id="uAXi2rXqYcfUyif14zVj-122" value="+ make_sound(): String" style="text;strokeColor=none;fillColor=none;align=left;verticalAlign=top;spacingLeft=4;spacingRight=4;overflow=hidden;rotatable=0;points=[[0,0.5],[1,0.5]];portConstraint=eastwest;whiteSpace=wrap;html=1;" vertex="1" parent="uAXi2rXqYcfUyif14zVj-119">
          <mxGeometry y="60" width="160" height="26" as="geometry" />
        </mxCell>
        <mxCell id="uAXi2rXqYcfUyif14zVj-123" value="Dog" style="swimlane;fontStyle=1;align=center;verticalAlign=top;childLayout=stackLayout;horizontal=1;startSize=26;horizontalStack=0;resizeParent=1;resizeParentMax=0;resizeLast=0;collapsible=1;marginBottom=0;whiteSpace=wrap;html=1;" vertex="1" parent="1">
          <mxGeometry x="430" y="1700" width="160" height="86" as="geometry" />
        </mxCell>
        <mxCell id="uAXi2rXqYcfUyif14zVj-124" value="- breed: String" style="text;strokeColor=none;fillColor=none;align=left;verticalAlign=top;spacingLeft=4;spacingRight=4;overflow=hidden;rotatable=0;points=[[0,0.5],[1,0.5]];portConstraint=eastwest;whiteSpace=wrap;html=1;" vertex="1" parent="uAXi2rXqYcfUyif14zVj-123">
          <mxGeometry y="26" width="160" height="26" as="geometry" />
        </mxCell>
        <mxCell id="uAXi2rXqYcfUyif14zVj-125" value="" style="line;strokeWidth=1;fillColor=none;align=left;verticalAlign=middle;spacingTop=-1;spacingLeft=3;spacingRight=3;rotatable=0;labelPosition=right;points=[];portConstraint=eastwest;strokeColor=inherit;" vertex="1" parent="uAXi2rXqYcfUyif14zVj-123">
          <mxGeometry y="52" width="160" height="8" as="geometry" />
        </mxCell>
        <mxCell id="uAXi2rXqYcfUyif14zVj-126" value="+ make_sound(): String" style="text;strokeColor=none;fillColor=none;align=left;verticalAlign=top;spacingLeft=4;spacingRight=4;overflow=hidden;rotatable=0;points=[[0,0.5],[1,0.5]];portConstraint=eastwest;whiteSpace=wrap;html=1;" vertex="1" parent="uAXi2rXqYcfUyif14zVj-123">
          <mxGeometry y="60" width="160" height="26" as="geometry" />
        </mxCell>
        <mxCell id="uAXi2rXqYcfUyif14zVj-127" value="AnimalInterface" style="swimlane;fontStyle=1;align=center;verticalAlign=top;childLayout=stackLayout;horizontal=1;startSize=26;horizontalStack=0;resizeParent=1;resizeParentMax=0;resizeLast=0;collapsible=1;marginBottom=0;whiteSpace=wrap;html=1;" vertex="1" parent="1">
          <mxGeometry x="60" y="1750" width="210" height="60" as="geometry" />
        </mxCell>
        <mxCell id="uAXi2rXqYcfUyif14zVj-129" value="" style="line;strokeWidth=1;fillColor=none;align=left;verticalAlign=middle;spacingTop=-1;spacingLeft=3;spacingRight=3;rotatable=0;labelPosition=right;points=[];portConstraint=eastwest;strokeColor=inherit;" vertex="1" parent="uAXi2rXqYcfUyif14zVj-127">
          <mxGeometry y="26" width="210" height="8" as="geometry" />
        </mxCell>
        <mxCell id="uAXi2rXqYcfUyif14zVj-130" value="{abstract} + make_sound(): String" style="text;strokeColor=none;fillColor=none;align=left;verticalAlign=top;spacingLeft=4;spacingRight=4;overflow=hidden;rotatable=0;points=[[0,0.5],[1,0.5]];portConstraint=eastwest;whiteSpace=wrap;html=1;" vertex="1" parent="uAXi2rXqYcfUyif14zVj-127">
          <mxGeometry y="34" width="210" height="26" as="geometry" />
        </mxCell>
        <mxCell id="uAXi2rXqYcfUyif14zVj-134" value="" style="endArrow=block;dashed=1;endFill=0;endSize=12;html=1;rounded=0;exitX=0;exitY=0.5;exitDx=0;exitDy=0;" edge="1" parent="1" source="uAXi2rXqYcfUyif14zVj-124">
          <mxGeometry width="160" relative="1" as="geometry">
            <mxPoint x="310" y="1710" as="sourcePoint" />
            <mxPoint x="270" y="1790" as="targetPoint" />
          </mxGeometry>
        </mxCell>
        <mxCell id="uAXi2rXqYcfUyif14zVj-136" value="Implements" style="edgeLabel;html=1;align=center;verticalAlign=middle;resizable=0;points=[];" vertex="1" connectable="0" parent="uAXi2rXqYcfUyif14zVj-134">
          <mxGeometry x="0.0785" y="-2" relative="1" as="geometry">
            <mxPoint as="offset" />
          </mxGeometry>
        </mxCell>
        <mxCell id="uAXi2rXqYcfUyif14zVj-135" value="" style="endArrow=block;dashed=1;endFill=0;endSize=12;html=1;rounded=0;exitX=0;exitY=0.5;exitDx=0;exitDy=0;entryX=1;entryY=0.5;entryDx=0;entryDy=0;" edge="1" parent="1" source="uAXi2rXqYcfUyif14zVj-120" target="uAXi2rXqYcfUyif14zVj-130">
          <mxGeometry width="160" relative="1" as="geometry">
            <mxPoint x="440" y="1729" as="sourcePoint" />
            <mxPoint x="280" y="1800" as="targetPoint" />
          </mxGeometry>
        </mxCell>
        <mxCell id="uAXi2rXqYcfUyif14zVj-137" value="Implements" style="edgeLabel;html=1;align=center;verticalAlign=middle;resizable=0;points=[];rotation=0;" vertex="1" connectable="0" parent="1">
          <mxGeometry x="352.95793670588614" y="1829.9968442328077" as="geometry" />
        </mxCell>
      </root>
    </mxGraphModel>
  </diagram>
</mxfile>
